<?xml version="1.0" encoding="utf-8"?>
<!-- Generator: Adobe Illustrator 23.1.0, SVG Export Plug-In . SVG Version: 6.00 Build 0)  -->
<svg version="1.1" id="Layer_1" xmlns="http://www.w3.org/2000/svg" xmlns:xlink="http://www.w3.org/1999/xlink" x="0px" y="0px"
	 viewBox="0 0 450 443.55" style="enable-background:new 0 0 450 443.55;" xml:space="preserve">
<style type="text/css">
	.st0{fill:#1B1B1B;}
	.st1{fill:#141414;}
	.st2{fill:url(#SVGID_1_);}
	.st3{fill:url(#SVGID_2_);}
	.st4{fill:#D6D6D6;}
	.st5{fill:#B4B4B4;}
	.st6{fill:#262626;}
	.st7{fill:url(#SVGID_3_);}
	.st8{fill:url(#SVGID_4_);}
	.st9{fill:#F797AB;}
	.st10{fill:#F7547F;}
	.st11{fill:#5E5E5E;}
	.st12{fill:#333333;}
	.st13{fill:url(#SVGID_5_);}
</style>
<g>
	<path class="st0" d="M86.17,384.52c8.35,0.99,13.16-4.28,16.48-9.51c1.7,5.28,5.49,9.19,10.89,12.06c0-0.08-0.55-30.15,36.19-95.68
		c-8.23,1.62-13.39,1.53-19.96-10.06c-2.59,5.9-11.09,9.2-12.74,4.96C80.94,352.73,85.94,381.03,86.17,384.52z"/>
	<path class="st1" d="M86.17,384.52c8.35,0.99,13.16-4.28,16.48-9.51c1.7,5.28,5.49,9.19,10.89,12.06c0-0.05-0.17-9.57,6.2-29.54
		c-21.11-5.4-7.42-44.3-3.3-53.9c1.65,4.25,19.48,13.93,23.91,5.24c2.82-5.52,5.93-11.35,9.37-17.49
		c-8.23,1.62-13.39,1.53-19.96-10.06c-2.59,5.9-11.09,9.2-12.74,4.96C80.94,352.73,85.94,381.03,86.17,384.52z"/>
	
		<linearGradient id="SVGID_1_" gradientUnits="userSpaceOnUse" x1="-346.8353" y1="668.6946" x2="-312.9608" y2="668.6946" gradientTransform="matrix(-0.9154 -0.4026 -0.4026 0.9154 67.3736 -369.4366)">
		<stop  offset="0" style="stop-color:#181818"/>
		<stop  offset="1" style="stop-color:#1A1A1A"/>
	</linearGradient>
	<path class="st2" d="M86.17,384.52c8.35,0.99,13.16-4.28,16.48-9.51c1.7,5.28,5.49,9.19,10.89,12.06c0-0.04-0.11-6.31,3.25-19.34
		c-6-3.21-19.09-5.45-29.5-5.12C84.95,376.05,86.07,382.92,86.17,384.52z"/>
</g>
<g>
	<path class="st0" d="M310.45,421.36c7.67-4.49,8.36-12.01,7.82-18.54c4.81,3.37,10.5,4.24,16.88,3.21
		c-0.05-0.07-19.72-25.07-30.6-103.76c-3.62,17.97-26.71,19.11-30.82,16.58C285.73,397.9,308.02,418.57,310.45,421.36z"/>
	<path class="st1" d="M310.45,421.36c7.67-4.49,8.36-12.01,7.82-18.54c4.81,3.37,10.5,4.24,16.88,3.21
		c-23.57-2.58-38.1-37.54-49.51-71.56c2.64,1.63,11.21,0.78,18.07-1.36c3.55,14.47,14.44,51.99,18.87,61.52
		c4.43,9.53,6.82,3.28,6.5,1.48c-19.32-41.27-23.51-86.47-24.53-93.84c-2.92,6.21-21.7,19.21-30.82,16.58
		C285.73,397.9,308.02,418.57,310.45,421.36z"/>
	
		<linearGradient id="SVGID_2_" gradientUnits="userSpaceOnUse" x1="211.2638" y1="768.2596" x2="247.0064" y2="768.2596" gradientTransform="matrix(-0.9713 0.2381 0.2381 0.9713 356.0798 -395.8874)">
		<stop  offset="0" style="stop-color:#181818"/>
		<stop  offset="1" style="stop-color:#1A1A1A"/>
	</linearGradient>
	<path class="st3" d="M310.45,421.36c7.67-4.49,8.36-12.01,7.82-18.54c4.81,3.37,10.5,4.24,16.88,3.21
		c-0.02-0.03-4.13-5.25-9.62-18.38c-7.11,1.12-19.58,7.6-28.13,14.52C304,415,309.33,420.08,310.45,421.36z"/>
</g>
<path class="st4" d="M344.63,225.85c11.01-3.36,18.51-14.33,14.97-24.07c-0.21,0.59-0.53,1.13-0.93,1.6
	c-0.16,3.63-3.79,6.43-7.42,4.39c-1.66-0.93-3.13-2.1-4.48-3.4c-0.84,1.47-1.83,2.84-3.24,3.95c-2.23,1.76-5.75,2.08-7.53-0.48
	c-1-0.4-1.89-1.08-2.49-2.04c-6.95-1.2-6.01-9.16-2.36-13.48c-0.15-1.03-0.28-2.05-0.38-3.09c-0.01-0.11-0.01-0.21-0.01-0.31
	c-0.29-0.23-0.58-0.47-0.85-0.74c-3.59-3.51-4.76-11.69,1.25-13.47c4.7-1.39,8.22,2.97,11.8,5.1c0.41,0.25,0.76,0.53,1.06,0.83
	c0.48-0.1,0.95-0.22,1.4-0.37c1.32-1.82,3.06-3.24,5.09-3.67c1.16-0.75,2.52-0.97,3.77-0.74c2.58-1.21,5.41,0.15,6.61,2.35
	c11.81-15.05,15.37-40.94-20.66-45.55c24.55-24.58-7.25-32.51-18.08-26c12.28-12.29,2.87-23.85-9.4-11.56
	c12.27-24.57-23.15-42.62-46.26-23.82c5.77-23.13-17.36-28.89-26.75-15.88c-5.07-16.62-28.19-22.38-39.02-3.59
	c-0.74-21.68-22.41-20.94-26.02-6.49c-17.35-16.61-48.42-15.14-47.68,18.82c-12.3-24.56-44.07,4.36-26.72,20.97
	c-13.77-0.65-15.63,11.8-9.37,15.71c-23.69-8.29-44,41.87-18.04,57.28c-24.57,0.02-28.89,17.36-12.99,27.47
	c-27.45,11.58-13.69,67.21,13.76,55.63c-21.67,13.02-5.76,35.41,12.3,24.56c-4.32,17.34,9.42,36.12,22.41,20.94
	c-11.55,21.68,32.55,54.17,50.6,31.04c-9.38,25.3,22.42,33.22,31.81,20.21c-7.94,19.51,20.24,17.33,23.13,5.77
	c15.18,13,65.77,19.47,57.79-22.44c28.19,10.1,36.85-0.02,27.45-11.58c23.3,16.07,29.62-8.47,19.5-16.63
	c40.48,22.37,46.95-28.21,28.88-41.93C377.17,255.45,367.03,222.22,344.63,225.85z"/>
<g>
	<g>
		<path class="st5" d="M64.84,231.87c-13.22-1.33-14.17-13.18,9.95-24.64c-14.12-9.55-15.1-31.27-8.47-48.6
			c-18.58,2.87-20.74,17.83-6.4,26.94c-19.26,8.13-18.21,37.92-6.39,50.98C55.86,234.54,59.51,232.86,64.84,231.87z"/>
		<path class="st5" d="M344.63,225.85c10.68-3.26,18.05-13.68,15.23-23.19c0,0.01-0.01,0.01-0.01,0.02
			c-0.21,2.47-1.02,4.88-2.49,6.96c-5.22,7.38-16.39,11.1-25.05,8.62c-9.8-2.8-13.76-15.44-9.9-24.26c0.99-2.26,2.48-4.18,4.27-5.73
			c-2.3,0.14-4.88-1.49-5.29-3.71c-0.52-2.81-0.5-5.03,0.44-7.77c0.54-1.57,1.74-3.16,3.49-3.49c1.05-0.2,1.93-0.22,2.92-0.09
			c0.27-0.3,0.56-0.59,0.87-0.84c1.73-1.41,4.46-1.75,6.34-0.68c0.58-0.18,1.19-0.3,1.86-0.34c1.41-0.09,2.76,0.22,3.99,0.81
			c1.09,0,2.16,0.29,3.02,0.82c2.43-0.77,4.94-1.09,7.31-0.83c1.82,0.09,3.59,0.51,5.21,1.36c0.14,0.08,0.26,0.17,0.4,0.25
			c1.11,0.47,2.09,1.3,2.7,2.32c0.45,0.56,0.86,1.15,1.18,1.79c11.62-15.09,14.87-40.65-20.91-45.22
			c24.55-24.58-7.25-32.51-18.08-26c12.28-12.29,2.87-23.85-9.4-11.56c12.27-24.57-23.15-42.62-46.26-23.82
			c5.77-23.13-17.36-28.89-26.75-15.88c-5.07-16.62-28.19-22.38-39.02-3.59c-0.74-21.68-22.41-20.94-26.02-6.49
			c-17.35-16.61-48.42-15.14-47.68,18.82c-12.3-24.56-44.07,4.36-26.72,20.97c-13.93-0.65-15.65,12.06-9.13,15.82
			c-22.13-8.11-41.43,34.94-23.06,53.44c9.03-18.93,27.5-30.24,47.03-8.8c-2.32-14.12,22.7-29.24,32.8-7.39
			c-2.5-42.47,46.13-57.08,51.47-12.46c3.6-36.33,45.5-21.26,36.09,15.41c9.95-24.64,72.97-4.81,40.36,40.02
			c25.28-15.19,36.52,14.08,21.07,29.63c13.64-7.08,25.66,9.19,3.3,17.59c-22.36,8.4,55.25,27.83,24.9,38.68
			c32.22,7.61,22.91,25.28,13.01,31.61c22.55-1.17,24.01-36.41,9.38-47.52C377.17,255.45,367.03,222.22,344.63,225.85z"/>
		<path class="st5" d="M347.57,205.28c-0.6-0.34-1.13-0.77-1.56-1.33c-2.23,2.3-5.07,3.49-7.8,2.42c-0.19,0.09-0.38,0.19-0.58,0.28
			c-0.68,0.3-1.37,0.47-2.03,0.53c-0.27,0.34-0.54,0.68-0.8,1.01c0.91,0.47,1.96,0.75,3.16,0.75c3.36,0.02,7.06-1.18,9.65-3.43
			C347.6,205.44,347.58,205.36,347.57,205.28z"/>
	</g>
</g>
<g>
	<path class="st6" d="M18.43,335.65c-4.35-9.18-0.67-15.92,3.54-20.97c-6.25-0.61-11.89-3.92-17.04-9.31
		c0.09-0.02,32.09-6.86,86.84-64.59c1.53,9.69,3.67,15.5,18.51,20.04c-5.21,4.39-5.35,14.8-0.21,15.62
		C54.1,333.67,22.21,335.04,18.43,335.65z"/>
	<path class="st0" d="M18.43,335.65c-4.35-9.18-0.67-15.92,3.54-20.97c-6.25-0.61-11.89-3.92-17.04-9.31
		c0.05-0.01,10.18-2.18,28.77-14.33c14.05,22.49,49.76-2.6,58.27-9.64c-5.14-0.81-22.42-18.54-14.99-25.7
		c4.72-4.55,9.65-9.51,14.78-14.92c1.53,9.69,3.67,15.5,18.51,20.04c-5.21,4.39-5.35,14.8-0.21,15.62
		C54.1,333.67,22.21,335.04,18.43,335.65z"/>
	
		<linearGradient id="SVGID_3_" gradientUnits="userSpaceOnUse" x1="413.1364" y1="589.0947" x2="448.9581" y2="589.0947" gradientTransform="matrix(0.7443 0.883 -0.7646 0.6445 152.0593 -442.6118)">
		<stop  offset="0" style="stop-color:#181818"/>
		<stop  offset="1" style="stop-color:#1A1A1A"/>
	</linearGradient>
	<path class="st7" d="M18.43,335.65c-4.35-9.18-0.67-15.92,3.54-20.97c-6.25-0.61-11.89-3.92-17.04-9.31
		c0.04-0.01,6.72-1.44,19.16-8.46c5.77,5.98,13.31,20.21,17.06,32.04C27.87,334.93,20.17,335.37,18.43,335.65z"/>
</g>
<g>
	<path class="st6" d="M234.49,430.06c-9.03-3.54-11.02-11.41-11.53-18.42c-4.64,4.33-10.65,6.16-17.71,6.08
		c0.04-0.08,17.16-29.71,15.89-114.88c6.88,18.48,32.04,16.02,36.06,12.69C257.32,401.25,236.64,426.71,234.49,430.06z"/>
	<path class="st0" d="M234.49,430.06c-9.03-3.54-11.02-11.41-11.53-18.42c-4.64,4.33-10.65,6.16-17.71,6.08
		c25.05-6.48,45.72-35.46,43-84.61c-4.02,3.33-27.48,3.28-27.2-7.77c0.17-7.03,0.22-14.52,0.1-22.5
		c4.18,6.12,26.63,16.93,36.06,12.69C257.32,401.25,236.64,426.71,234.49,430.06z"/>
	
		<linearGradient id="SVGID_4_" gradientUnits="userSpaceOnUse" x1="-35.668" y1="727.8617" x2="3.5097" y2="727.8617" gradientTransform="matrix(0.9965 0.0836 -0.0836 0.9965 302.098 -310.4684)">
		<stop  offset="0" style="stop-color:#181818"/>
		<stop  offset="1" style="stop-color:#1A1A1A"/>
	</linearGradient>
	<path class="st8" d="M234.49,430.06c-9.03-3.54-11.02-11.41-11.53-18.42c-4.64,4.33-10.65,6.16-17.71,6.08
		c0.02-0.04,3.59-6.22,7.35-21.01c7.87,0.06,22.42,4.95,32.81,10.93C240.4,422.28,235.48,428.51,234.49,430.06z"/>
</g>
<g>
	<g>
		<path class="st0" d="M317.23,151.07c-8.04-18.65-11.48-39.24-29.47-46.17c-31.36-9.98-40.05,15.56-32.27,35.59
			c7.78,20.02,57.24,30.95,57.24,30.95L317.23,151.07z"/>
		<path class="st6" d="M314.83,161.94c-8.99-2.29-37.23-10.4-42.48-23.16c-5.4-13.13-24.63-18.32-16.85,1.71
			c7.78,20.02,57.24,30.95,57.24,30.95L314.83,161.94z"/>
	</g>
	<path class="st6" d="M391.2,134c-14.66-41.97-77.52,10.58-77.52,10.58c-1.84,89.69,0.51,136.95,61.62,126.52
		C436.41,260.67,407.51,180.69,391.2,134z M351.79,190.93c2.17,2.52,3.9,4.54,5.9,7.63c2.53,3.92-2.05,8.24-5.73,5.77
		c-3.21-2.16-5.35-4.1-7.64-6.14c-4.47,4.1-10.26,10.73-13.81,5.78c-2.07-2.9-0.05-5.73,6.25-13.09
		c-5.35-5.79-10.83-12.09-5.68-15.05c3.26-1.88,7.33,1.57,13.22,7.13c4.87-4.51,12.27-11.17,15.3-5.64
		C361.39,180.57,358.16,184.19,351.79,190.93z M394.16,193.77c-3.47-0.89-5.94-1.94-8.56-3.01c-2.65,4.96-5.66,12.53-10.28,9.3
		c-2.7-1.89-1.8-4.99,1.43-13.35c-6.45-3.41-13.17-7.22-9.59-11.39c2.27-2.64,6.88-0.88,13.74,2.16c2.86-5.44,7.27-13.53,11.63-9.63
		c2.55,2.28,0.85,6.44-2.64,14.28c2.67,1.54,4.8,2.76,7.5,4.85C400.81,189.62,398.14,194.8,394.16,193.77z"/>
	<g>
		<path class="st0" d="M385.21,144.17c3.87-13.71,3.97-31.37,24.7-43.21c29.65-14.17,40.3,4.91,34.45,22.68
			c-5.85,17.78-53.02,36.21-53.02,36.21L385.21,144.17z"/>
		<path class="st6" d="M388.48,152.54c8.55-3.6,27.53-12.93,42.49-27.14c3.05-2.9,10.18-16.56,4.69-28.07
			c9.62,3.8,12.32,15.31,8.7,26.31c-5.85,17.78-53.02,36.21-53.02,36.21L388.48,152.54z"/>
	</g>
	<g>
		<path class="st9" d="M337.43,264.19c-13.97,12.12-43.35,7.59-45.67-15.81c-1.59-16.02,18.15-15.01,22.74-6.21
			c4.88,9.37,13.05,3.72,13.05,3.72L337.43,264.19z"/>
		<path class="st10" d="M291.76,248.38c0,0.03,0.01,0.06,0.02,0.1c3.69-7.97,17.81-7.39,22.55-0.82c6.34,8.78,14.14,2.25,14.14,2.25
			l4.56,6.13l-5.48-10.15c0,0-8.16,5.65-13.05-3.72C309.92,233.36,290.18,232.35,291.76,248.38z"/>
		<path class="st10" d="M335.13,260.35c-11.86,6.21-31.57,7.04-33.5-9.52c4.53,9.83,20.2,14.1,29.77,5.79
			C338.69,250.3,335.13,260.35,335.13,260.35z"/>
	</g>
	<path class="st0" d="M380.03,264.17c6.51-7.3,5.74-12.62,1.3-18.16c-1.55,0.1-8.26,1.7-5.87,1.11c0.98-0.24,3.79,16.55-4.68,18.2
		c-47.24,10.08-50.05-40.4-48.43-119.57c0,0,25.79-25.3,47.5-18.45c-24.07-14.2-56.17,17.29-56.17,17.29
		c-1.84,89.69,0.51,136.95,61.62,126.52c17.33-2.96,27.2-11.85,31.93-23.91C402.15,255.69,393.53,261.86,380.03,264.17z"/>
	<g>
		<path class="st11" d="M399.73,239.06c2.74,9.04-8.29,14.59-18.29,15.96c-10,1.37-24.43-1.8-23.74-8.85
			c0.78-6.37,3.58-12.78,17.59-15.15C389.3,228.65,395.81,231.54,399.73,239.06z"/>
		<path class="st12" d="M375.21,237.1c11.34-1.92,19.06-0.61,24.18,2.11c0.11-0.05,0.22-0.09,0.34-0.15
			c-3.92-7.52-10.59-11.62-24.6-9.25c-13.7,2.32-16.58,9.55-17.37,15.92C360.3,242.21,365.11,238.81,375.21,237.1z"/>
	</g>
	<g>
		
			<radialGradient id="SVGID_5_" cx="-59.0215" cy="241.1735" r="89.1629" gradientTransform="matrix(-0.9026 -0.1678 0.1829 -0.9832 268.8847 418.8)" gradientUnits="userSpaceOnUse">
			<stop  offset="0" style="stop-color:#E0E0E0"/>
			<stop  offset="1" style="stop-color:#D6D6D6"/>
		</radialGradient>
		<path class="st13" d="M396.17,142.68c30.03-0.52,24.8-37.92,0.09-38.65c16.51-12.4-8.86-28.72-14.38-18.14
			c-1.35-11.85-21.93-15.68-21.28-0.09c-0.65-15.59-30.03-26.21-39.75-4.17c5.41-13.17-30.91-16.71-27.53,3.26
			c-9.6-5.65-21.33,19.24-7.6,21.79c-17.16-3.19-10.38,36.74,9.55,24.98c-21.33,19.23,25.32,35.64,24.67,20.06
			c-0.04,19.33,23.28,27.53,33.62,10.12c-2.78,14.95,26.06,12.58,25.41-3.01C404.42,169.84,409.46,143.18,396.17,142.68z"/>
		<path class="st5" d="M285.72,106.68c-9.94-1.85-11.84,10.78-7.8,19.44c2.96-4.71,8.58-8.19,17.34-8.5
			c-13.01-0.24-8.49-26.4,16.58-16.08c-0.88-15.23,27.31-18.07,24.82-3.4c9.85-17.21,32.8-9.61,33.05,9.28
			c-0.88-15.23,45.03-0.03,24.45,19.16c9.95-6.1,16.68,1.24,18.59,9.43c9.34-10.92,1.74-31.43-16.51-31.97
			c16.51-12.4-8.86-28.72-14.38-18.14c-1.35-11.85-21.93-15.68-21.28-0.09c-0.65-15.59-30.03-26.21-39.75-4.17
			c5.41-13.17-30.91-16.7-27.53,3.26C283.73,79.24,272,104.12,285.72,106.68z"/>
	</g>
</g>
<path class="st1" d="M384.42,297.79"/>
<path class="st1" d="M383.85,325.92"/>
</svg>
